<svg width="220" height="64" viewBox="0 0 220 64" fill="none" xmlns="http://www.w3.org/2000/svg" role="img" aria-label="FocusFlow logo">
  <path d="M13 18L31 7C33.1 5.7 35.8 5.8 37.8 7.2L51 16L32 28L13 18Z" fill="url(#logoGradient1)"/>
  <path d="M13 18L32 28V47L13 36C11.1 34.9 10 32.9 10 30.7V23.3C10 21.1 11.1 19.1 13 18Z" fill="url(#logoGradient2)"/>
  <path d="M32 28L51 16V26.7C51 28.9 49.9 30.9 48 32L32 41V28Z" fill="url(#logoGradient3)"/>
  <path d="M32 41L48 32L55 36.2C57.6 37.8 57.6 41.6 55 43.2L38 53.3C36.1 54.4 33.8 54.4 31.9 53.3L13 42V36L32 47V41Z" fill="url(#logoGradient4)"/>
  <text x="72" y="30" fill="#0F172A" font-family="Inter, Arial, sans-serif" font-size="24" font-weight="800">FocusFlow</text>
  <text x="73" y="48" fill="#64748B" font-family="Inter, Arial, sans-serif" font-size="11" font-weight="400">Stay focused, track progress.</text>
  <defs>
    <linearGradient id="logoGradient1" x1="13" y1="7" x2="51" y2="28" gradientUnits="userSpaceOnUse">
      <stop stop-color="#38BDF8"/>
      <stop offset="1" stop-color="#2563EB"/>
    </linearGradient>
    <linearGradient id="logoGradient2" x1="10" y1="18" x2="32" y2="47" gradientUnits="userSpaceOnUse">
      <stop stop-color="#2563EB"/>
      <stop offset="1" stop-color="#1D4ED8"/>
    </linearGradient>
    <linearGradient id="logoGradient3" x1="32" y1="16" x2="51" y2="41" gradientUnits="userSpaceOnUse">
      <stop stop-color="#22D3EE"/>
      <stop offset="1" stop-color="#0F766E"/>
    </linearGradient>
    <linearGradient id="logoGradient4" x1="13" y1="32" x2="57" y2="54" gradientUnits="userSpaceOnUse">
      <stop stop-color="#1D4ED8"/>
      <stop offset="0.5" stop-color="#2563EB"/>
      <stop offset="1" stop-color="#14B8A6"/>
    </linearGradient>
  </defs>
</svg>
